<?xml version="1.0" encoding="utf-8"?>
<!-- Generator: Adobe Illustrator 19.1.0, SVG Export Plug-In . SVG Version: 6.00 Build 0)  -->
<!DOCTYPE svg PUBLIC "-//W3C//DTD SVG 1.1//EN" "http://www.w3.org/Graphics/SVG/1.1/DTD/svg11.dtd">
<svg version="1.1" id="icons" xmlns="http://www.w3.org/2000/svg" xmlns:xlink="http://www.w3.org/1999/xlink" x="0px" y="0px"
	 viewBox="0 0 109.4 109.8" enable-background="new 0 0 109.4 109.8" xml:space="preserve">
<path fill="#FFFFFF" d="M86.1,43c0-23.8-19.3-43-43-43C19.3,0,0,19.3,0,43c0,23.8,19.3,43,43,43C66.8,86.1,86.1,66.8,86.1,43z
	 M43,75.5C25.1,75.5,10.6,61,10.6,43c0-17.9,14.5-32.5,32.5-32.5C61,10.6,75.5,25.1,75.5,43C75.5,61,61,75.5,43,75.5z M105.4,105.8
	c-3.9,3.9-8.9,5.1-11.3,2.8L69.5,84c3.4-2.2,6.6-4.9,9.3-7.9l23.3,23.3c2-1.9,1.7-3.6,1.7-3.6L81.3,73.3c0.8-1.1,1.6-2.1,2.4-3.3
	l24.5,24.5C110.5,96.8,109.3,101.9,105.4,105.8z"/>
</svg>
