<?xml version="1.0" encoding="utf-8"?>
<!-- Generator: Adobe Illustrator 19.1.0, SVG Export Plug-In . SVG Version: 6.00 Build 0)  -->
<!DOCTYPE svg PUBLIC "-//W3C//DTD SVG 1.1//EN" "http://www.w3.org/Graphics/SVG/1.1/DTD/svg11.dtd">
<svg version="1.1" id="Layer_1" xmlns="http://www.w3.org/2000/svg" xmlns:xlink="http://www.w3.org/1999/xlink" x="0px" y="0px"
	 viewBox="0 0 367.9 281.5" enable-background="new 0 0 367.9 281.5" xml:space="preserve">
<g>
	<path fill="#6EB43F" d="M343.9,0H24C10.8,0,0,10.8,0,24v233.5c0,13.2,10.8,24,24,24h319.9c13.2,0,24-10.8,24-24V24
		C367.9,10.8,357.1,0,343.9,0z M114,16.4h225.7c4,0,7.3,3.3,7.3,7.3c0,4-3.3,7.3-7.3,7.3H114c-4,0-7.3-3.3-7.3-7.3
		C106.7,19.7,110,16.4,114,16.4z M52.3,16.4c4,0,7.3,3.3,7.3,7.3s-3.3,7.3-7.3,7.3c-4,0-7.3-3.3-7.3-7.3S48.2,16.4,52.3,16.4z
		 M26.6,16.4c4,0,7.3,3.3,7.3,7.3s-3.3,7.3-7.3,7.3s-7.3-3.3-7.3-7.3S22.6,16.4,26.6,16.4z M363.9,257.5c0,11-9,20-20,20H24
		c-11,0-20-9-20-20v-212h359.9V257.5z"/>
	<path fill="#6EB43F" d="M343.2,68.1H181.9v80.5h161.3V68.1z M339.2,144.5H185.9V72.1h153.3V144.5z"/>
	<path fill="#6EB43F" d="M343.2,165.7H24.6v40.2h318.6V165.7z M339.2,201.9H28.6v-32.2h310.6V201.9z"/>
	<path fill="#6EB43F" d="M322.4,128.9h-43.9c-0.3,0-0.5,0.2-0.5,0.5v1.1c0,0.3,0.2,0.5,0.5,0.5h43.9c0.3,0,0.5-0.2,0.5-0.5v-1.1
		C322.9,129.2,322.6,128.9,322.4,128.9z"/>
	<path fill="#6EB43F" d="M320.6,127.2v-20.4c-1.9-0.1-3.6-0.9-4.9-2.2c-1.3,1.4-3.2,2.2-5.2,2.2c-1.9,0-3.7-0.7-5-2.1
		c-1.3,1.3-3.1,2.1-5,2.1c-2,0-3.8-0.8-5.2-2.2c-1.3,1.4-3.2,2.2-5.2,2.2c-1.9,0-3.7-0.7-5-2.1c-1.3,1.3-3.1,2.1-5,2.1
		c-0.2,0-0.3,0-0.5,0v20.4h28.5v-16.5c0-0.5,0.4-1,1-1h6.7c0.5,0,1,0.4,1,1v16.5H320.6z M303.8,122.3c0,0.5-0.4,1-1,1h-18.6
		c-0.5,0-1-0.4-1-1v-11.5c0-0.5,0.4-1,1-1h18.6c0.5,0,1,0.4,1,1V122.3z"/>
	<path fill="#6EB43F" d="M279.8,87.6h41.6c0.3,0,0.5-0.2,0.5-0.5v-0.7c0-0.3-0.2-0.5-0.5-0.5h-41.6c-0.3,0-0.5,0.2-0.5,0.5v0.7
		C279.3,87.3,279.5,87.6,279.8,87.6z"/>
	<path fill="#6EB43F" d="M321.1,89h-9.6c0,0,0,0,0,0c0,0,1.6,5.6,1.8,8.4h12.6C325.5,94,321.1,89,321.1,89
		C321.1,89,321.1,89,321.1,89z"/>
	<path fill="#6EB43F" d="M289.1,89C289.1,89,289.1,89,289.1,89l-9.3,0c0,0,0,0,0,0c0,0-4.3,5.2-4.8,8.4h12.3
		C287.4,93.8,289.1,89,289.1,89z"/>
	<path fill="#6EB43F" d="M280.1,104.9c2.4,0,4.4-1.7,5-3.9c0.6,2.2,2.6,3.9,5,3.9c2.9,0,5.2-2.3,5.2-5.2c0,2.9,2.3,5.2,5.2,5.2
		c2.4,0,4.4-1.7,5-3.9c0.6,2.2,2.6,3.9,5,3.9c2.9,0,5.2-2.3,5.2-5.2c0,2.9,2.3,5.2,5.2,5.2c2.9,0,5.2-2.3,5.2-5.2v-1.2h-12.6v1.2
		c0,1.6-1.3,2.9-2.9,2.9c-1.6,0-2.9-1.3-2.9-2.9v-1.2H293v1.2c0,1.6-1.3,2.9-2.9,2.9c-1.6,0-2.9-1.3-2.9-2.9v-1.2h-12.3v1.2
		C274.9,102.5,277.2,104.9,280.1,104.9z"/>
	<path fill="#6EB43F" d="M294,89C294,89,294,89,294,89c0,0-0.9,5.3-1,8.4h14.6c-0.1-2.8-1-8.4-1-8.4c0,0,0,0,0,0H294z"/>
	<path fill="#6EB43F" d="M243.7,110.3c0.6,0.3,1.5,0.7,4.1,1.8l0.9,0.4c9.1,3.7,11,8.3,11,11.6v2c3.3-0.5,5.3-1.3,5.3-2.2
		c0,0,0,0,0,0h0c0,0,0-2.8,0-4.2c0-2-1.9-4.2-6.7-6.2c-3.6-1.5-4.1-1.6-5.1-2.3c-0.9-0.6-1.8-2.2-0.5-3.8c2.3-2.2,3.8-5.7,3.8-9.6
		c0-5.2-3.8-9.4-8.6-9.4c-0.3,0-0.6,0-0.9,0.1c1.2,2.3,1.9,4.9,1.9,7.7C248.8,101.5,246.9,106.7,243.7,110.3z"/>
	<path fill="#6EB43F" d="M208,126.2v-2.2c0-3.2,1.9-7.8,11-11.6l0.9-0.4c1.8-0.7,2.8-1.1,3.5-1.4c-0.4-0.5-0.8-1.2-0.6-2
		c-2.4-3.5-3.9-7.9-3.9-12.5c0-2.7,0.6-5.3,1.7-7.5c-0.7-0.2-1.4-0.3-2.1-0.3c-4.7,0-8.6,4.2-8.6,9.4c0,3.7,1.4,7.2,3.6,9.4
		c1.9,1.9,1,2.9-0.4,3.9c-1,0.7-1.5,0.9-5.1,2.3c-4.8,1.9-6.7,4.2-6.7,6.2c0,1.4,0,4.2,0,4.2h0c0,0,0,0,0,0
		C201.4,124.8,204,125.6,208,126.2z"/>
	<path fill="#6EB43F" d="M227.1,113.1c-1.2,0.9-1.9,1.1-6.5,3c-6.1,2.5-8.6,5.3-8.6,7.9c0,1.7,0,5.4,0,5.4h0c0,0,0,0,0,0.1
		c0,2.1,9.8,3.8,21.9,3.8c12.1,0,21.9-1.7,21.9-3.8c0,0,0,0,0-0.1h0c0,0,0-3.6,0-5.4c0-2.6-2.5-5.4-8.6-7.9c-4.6-1.9-5.2-2.1-6.5-3
		c-1.2-0.8-2.3-2.8-0.7-4.8c2.9-2.7,4.8-7.3,4.8-12.2c0-6.6-4.9-12-10.9-12c-6,0-10.9,5.4-10.9,12c0,4.7,1.8,9.2,4.6,12
		C229.9,110.4,228.8,111.8,227.1,113.1z"/>
</g>
</svg>
