<?xml version="1.0"?>
<svg xmlns="http://www.w3.org/2000/svg" xmlns:xlink="http://www.w3.org/1999/xlink" version="1.1" viewBox="0 0 172 172" width="48px" height="48px"><g transform=""><g fill="none" fill-rule="nonzero" stroke="none" stroke-width="1" stroke-linecap="butt" stroke-linejoin="miter" stroke-miterlimit="10" stroke-dasharray="" stroke-dashoffset="0" font-family="none" font-weight="none" font-size="none" text-anchor="none" style="mix-blend-mode: normal"><path d="M0,172v-172h172v172z" fill="#ffffff"/><g id="Layer_1"><path d="M157.66667,86c0,39.57433 -32.09233,71.66667 -71.66667,71.66667c-39.57433,0 -71.66667,-32.09233 -71.66667,-71.66667c0,-39.57433 32.09233,-71.66667 71.66667,-71.66667c39.57433,0 71.66667,32.09233 71.66667,71.66667z" fill="#4caf50"/><path d="M86,14.33333v71.66667l28.66667,14.33333l-31.68742,57.33333c1.13592,0 1.88483,0 3.02075,0c39.60658,0 71.66667,-32.06008 71.66667,-71.66667c0,-39.60658 -32.06008,-71.66667 -71.66667,-71.66667z" fill="#ffc107"/><path d="M157.66667,86c0,39.57433 -32.09233,71.66667 -71.66667,71.66667c-39.57433,0 -71.66667,-32.09233 -71.66667,-71.66667c0,-39.57433 32.09233,-71.66667 71.66667,-71.66667c39.57433,0 71.66667,32.09233 71.66667,71.66667z" fill="#4caf50"/><path d="M86,14.33333v71.66667l28.66667,14.33333l-31.68742,57.33333c1.13592,0 1.88483,0 3.02075,0c39.60658,0 71.66667,-32.06008 71.66667,-71.66667c0,-39.60658 -32.06008,-71.66667 -71.66667,-71.66667z" fill="#ffc107"/><path d="M149.92667,53.75h-63.92667v46.58333l-10.75,-3.58333l-49.59333,-49.235h-0.07167c12.685,-19.95917 35.00917,-33.18167 60.415,-33.18167c27.95,0 52.1375,16.05333 63.92667,39.41667z" fill="#f44336"/><path d="M25.6495,47.52933l31.68742,53.2555l17.91308,-4.03483z" fill="#dd2c00"/><path d="M82.97925,157.66667l32.0135,-57.54475l-14.65942,-10.53858z" fill="#558b2f"/><path d="M150.01625,53.75h-64.01625l-5.65808,16.41167z" fill="#f9a825"/><path d="M118.25,86c0,17.80558 -14.44442,32.25 -32.25,32.25c-17.80558,0 -32.25,-14.44442 -32.25,-32.25c0,-17.80558 14.44442,-32.25 32.25,-32.25c17.80558,0 32.25,14.44442 32.25,32.25z" fill="#ffffff"/><path d="M111.08333,86c0,13.85675 -11.22658,25.08333 -25.08333,25.08333c-13.85675,0 -25.08333,-11.22658 -25.08333,-25.08333c0,-13.85675 11.22658,-25.08333 25.08333,-25.08333c13.85675,0 25.08333,11.22658 25.08333,25.08333z" fill="#2196f3"/></g><path d="M86,172c-47.49649,0 -86,-38.50351 -86,-86v0c0,-47.49649 38.50351,-86 86,-86v0c47.49649,0 86,38.50351 86,86v0c0,47.49649 -38.50351,86 -86,86z" fill="none"/><path d="M86,168.56c-45.59663,0 -82.56,-36.96337 -82.56,-82.56v0c0,-45.59663 36.96337,-82.56 82.56,-82.56v0c45.59663,0 82.56,36.96337 82.56,82.56v0c0,45.59663 -36.96337,82.56 -82.56,82.56z" fill="none"/><path d="M86,172c-47.49649,0 -86,-38.50351 -86,-86v0c0,-47.49649 38.50351,-86 86,-86v0c47.49649,0 86,38.50351 86,86v0c0,47.49649 -38.50351,86 -86,86z" fill="none"/><path d="M86,165.12c-43.69677,0 -79.12,-35.42323 -79.12,-79.12v0c0,-43.69677 35.42323,-79.12 79.12,-79.12v0c43.69677,0 79.12,35.42323 79.12,79.12v0c0,43.69677 -35.42323,79.12 -79.12,79.12z" fill="none"/><path d="M86,172c-47.49649,0 -86,-38.50351 -86,-86v0c0,-47.49649 38.50351,-86 86,-86v0c47.49649,0 86,38.50351 86,86v0c0,47.49649 -38.50351,86 -86,86z" fill="none"/><path d="M86,161.68c-41.79691,0 -75.68,-33.88309 -75.68,-75.68v0c0,-41.79691 33.88309,-75.68 75.68,-75.68v0c41.79691,0 75.68,33.88309 75.68,75.68v0c0,41.79691 -33.88309,75.68 -75.68,75.68z" fill="none"/><path d="M86,172c-47.49649,0 -86,-38.50351 -86,-86v0c0,-47.49649 38.50351,-86 86,-86v0c47.49649,0 86,38.50351 86,86v0c0,47.49649 -38.50351,86 -86,86z" fill="none"/><path d="M86,165.12c-43.69677,0 -79.12,-35.42323 -79.12,-79.12v0c0,-43.69677 35.42323,-79.12 79.12,-79.12v0c43.69677,0 79.12,35.42323 79.12,79.12v0c0,43.69677 -35.42323,79.12 -79.12,79.12z" fill="none"/><path d="M86,172c-47.49649,0 -86,-38.50351 -86,-86v0c0,-47.49649 38.50351,-86 86,-86v0c47.49649,0 86,38.50351 86,86v0c0,47.49649 -38.50351,86 -86,86z" fill="none"/><path d="M86,168.56c-45.59663,0 -82.56,-36.96337 -82.56,-82.56v0c0,-45.59663 36.96337,-82.56 82.56,-82.56v0c45.59663,0 82.56,36.96337 82.56,82.56v0c0,45.59663 -36.96337,82.56 -82.56,82.56z" fill="none"/><path d="M86,172c-47.49649,0 -86,-38.50351 -86,-86v0c0,-47.49649 38.50351,-86 86,-86v0c47.49649,0 86,38.50351 86,86v0c0,47.49649 -38.50351,86 -86,86z" fill="none"/><path d="M86,172c-47.49649,0 -86,-38.50351 -86,-86v0c0,-47.49649 38.50351,-86 86,-86v0c47.49649,0 86,38.50351 86,86v0c0,47.49649 -38.50351,86 -86,86z" fill="none"/><path d="M16.34,178.88c-12.82405,0 -23.22,-10.39595 -23.22,-23.22v-139.32c0,-12.82405 10.39595,-23.22 23.22,-23.22h139.32c12.82405,0 23.22,10.39595 23.22,23.22v139.32c0,12.82405 -10.39595,23.22 -23.22,23.22z" fill="none"/><path d="M19.78,175.44c-12.82405,0 -23.22,-10.39595 -23.22,-23.22v-132.44c0,-12.82405 10.39595,-23.22 23.22,-23.22h132.44c12.82405,0 23.22,10.39595 23.22,23.22v132.44c0,12.82405 -10.39595,23.22 -23.22,23.22z" fill="none"/><path d="M16.34,178.88c-12.82405,0 -23.22,-10.39595 -23.22,-23.22v-139.32c0,-12.82405 10.39595,-23.22 23.22,-23.22h139.32c12.82405,0 23.22,10.39595 23.22,23.22v139.32c0,12.82405 -10.39595,23.22 -23.22,23.22z" fill="none"/><path d="M16.34,178.88c-12.82405,0 -23.22,-10.39595 -23.22,-23.22v-139.32c0,-12.82405 10.39595,-23.22 23.22,-23.22h139.32c12.82405,0 23.22,10.39595 23.22,23.22v139.32c0,12.82405 -10.39595,23.22 -23.22,23.22z" fill="none"/><path d="M20.0552,178.88c-14.8759,0 -26.9352,-12.0593 -26.9352,-26.9352v-131.8896c0,-14.8759 12.0593,-26.9352 26.9352,-26.9352h131.8896c14.8759,0 26.9352,12.0593 26.9352,26.9352v131.8896c0,14.8759 -12.0593,26.9352 -26.9352,26.9352z" fill="none"/><path d="M20.0552,178.88c-14.8759,0 -26.9352,-12.0593 -26.9352,-26.9352v-131.8896c0,-14.8759 12.0593,-26.9352 26.9352,-26.9352h131.8896c14.8759,0 26.9352,12.0593 26.9352,26.9352v131.8896c0,14.8759 -12.0593,26.9352 -26.9352,26.9352z" fill="none"/><path d="M26.5568,178.88c-18.46663,0 -33.4368,-14.97017 -33.4368,-33.4368v-118.8864c0,-18.46663 14.97017,-33.4368 33.4368,-33.4368h118.8864c18.46663,0 33.4368,14.97017 33.4368,33.4368v118.8864c0,18.46663 -14.97017,33.4368 -33.4368,33.4368z" fill="none"/><path d="M26.5568,178.88c-18.46663,0 -33.4368,-14.97017 -33.4368,-33.4368v-118.8864c0,-18.46663 14.97017,-33.4368 33.4368,-33.4368h118.8864c18.46663,0 33.4368,14.97017 33.4368,33.4368v118.8864c0,18.46663 -14.97017,33.4368 -33.4368,33.4368z" fill="none"/><path d="M36.7736,178.88c-24.10922,0 -43.6536,-19.54438 -43.6536,-43.6536v-98.4528c0,-24.10922 19.54438,-43.6536 43.6536,-43.6536h98.4528c24.10922,0 43.6536,19.54438 43.6536,43.6536v98.4528c0,24.10922 -19.54438,43.6536 -43.6536,43.6536z" fill="none"/><path d="M36.7736,178.88c-24.10922,0 -43.6536,-19.54438 -43.6536,-43.6536v-98.4528c0,-24.10922 19.54438,-43.6536 43.6536,-43.6536h98.4528c24.10922,0 43.6536,19.54438 43.6536,43.6536v98.4528c0,24.10922 -19.54438,43.6536 -43.6536,43.6536z" fill="none"/><path d="M42.3464,178.88c-27.18699,0 -49.2264,-22.03941 -49.2264,-49.2264v-87.3072c0,-27.18699 22.03941,-49.2264 49.2264,-49.2264h87.3072c27.18699,0 49.2264,22.03941 49.2264,49.2264v87.3072c0,27.18699 -22.03941,49.2264 -49.2264,49.2264z" fill="none"/><path d="M42.3464,178.88c-27.18699,0 -49.2264,-22.03941 -49.2264,-49.2264v-87.3072c0,-27.18699 22.03941,-49.2264 49.2264,-49.2264h87.3072c27.18699,0 49.2264,22.03941 49.2264,49.2264v87.3072c0,27.18699 -22.03941,49.2264 -49.2264,49.2264z" fill="none"/><path d="M43.2752,178.88c-27.69995,0 -50.1552,-22.45525 -50.1552,-50.1552v-85.4496c0,-27.69995 22.45525,-50.1552 50.1552,-50.1552h85.4496c27.69995,0 50.1552,22.45525 50.1552,50.1552v85.4496c0,27.69995 -22.45525,50.1552 -50.1552,50.1552z" fill="none"/><path d="M43.2752,178.88c-27.69995,0 -50.1552,-22.45525 -50.1552,-50.1552v-85.4496c0,-27.69995 22.45525,-50.1552 50.1552,-50.1552h85.4496c27.69995,0 50.1552,22.45525 50.1552,50.1552v85.4496c0,27.69995 -22.45525,50.1552 -50.1552,50.1552z" fill="none"/><path d="M46.0616,178.88c-29.23884,0 -52.9416,-23.70276 -52.9416,-52.9416v-79.8768c0,-29.23884 23.70276,-52.9416 52.9416,-52.9416h79.8768c29.23884,0 52.9416,23.70276 52.9416,52.9416v79.8768c0,29.23884 -23.70276,52.9416 -52.9416,52.9416z" fill="none"/><path d="M46.0616,178.88c-29.23884,0 -52.9416,-23.70276 -52.9416,-52.9416v-79.8768c0,-29.23884 23.70276,-52.9416 52.9416,-52.9416h79.8768c29.23884,0 52.9416,23.70276 52.9416,52.9416v79.8768c0,29.23884 -23.70276,52.9416 -52.9416,52.9416z" fill="none"/><path d="M50.7056,178.88c-31.80365,0 -57.5856,-25.78195 -57.5856,-57.5856v-70.5888c0,-31.80365 25.78195,-57.5856 57.5856,-57.5856h70.5888c31.80365,0 57.5856,25.78195 57.5856,57.5856v70.5888c0,31.80365 -25.78195,57.5856 -57.5856,57.5856z" fill="none"/><path d="M50.7056,178.88c-31.80365,0 -57.5856,-25.78195 -57.5856,-57.5856v-70.5888c0,-31.80365 25.78195,-57.5856 57.5856,-57.5856h70.5888c31.80365,0 57.5856,25.78195 57.5856,57.5856v70.5888c0,31.80365 -25.78195,57.5856 -57.5856,57.5856z" fill="none"/><path d="M52.5632,178.88c-32.82957,0 -59.4432,-26.61363 -59.4432,-59.4432v-66.8736c0,-32.82957 26.61363,-59.4432 59.4432,-59.4432h66.8736c32.82957,0 59.4432,26.61363 59.4432,59.4432v66.8736c0,32.82957 -26.61363,59.4432 -59.4432,59.4432z" fill="none"/><path d="M52.5632,178.88c-32.82957,0 -59.4432,-26.61363 -59.4432,-59.4432v-66.8736c0,-32.82957 26.61363,-59.4432 59.4432,-59.4432h66.8736c32.82957,0 59.4432,26.61363 59.4432,59.4432v66.8736c0,32.82957 -26.61363,59.4432 -59.4432,59.4432z" fill="none"/><path d="M54.4208,178.88c-33.8555,0 -61.3008,-27.4453 -61.3008,-61.3008v-63.1584c0,-33.8555 27.4453,-61.3008 61.3008,-61.3008h63.1584c33.8555,0 61.3008,27.4453 61.3008,61.3008v63.1584c0,33.8555 -27.4453,61.3008 -61.3008,61.3008z" fill="none"/><path d="M54.4208,178.88c-33.8555,0 -61.3008,-27.4453 -61.3008,-61.3008v-63.1584c0,-33.8555 27.4453,-61.3008 61.3008,-61.3008h63.1584c33.8555,0 61.3008,27.4453 61.3008,61.3008v63.1584c0,33.8555 -27.4453,61.3008 -61.3008,61.3008z" fill="none"/><path d="M57.2072,178.88c-35.39438,0 -64.0872,-28.69282 -64.0872,-64.0872v-57.5856c0,-35.39438 28.69282,-64.0872 64.0872,-64.0872h57.5856c35.39438,0 64.0872,28.69282 64.0872,64.0872v57.5856c0,35.39438 -28.69282,64.0872 -64.0872,64.0872z" fill="none"/><path d="M57.2072,178.88c-35.39438,0 -64.0872,-28.69282 -64.0872,-64.0872v-57.5856c0,-35.39438 28.69282,-64.0872 64.0872,-64.0872h57.5856c35.39438,0 64.0872,28.69282 64.0872,64.0872v57.5856c0,35.39438 -28.69282,64.0872 -64.0872,64.0872z" fill="none"/><path d="M61.8512,178.88c-37.95919,0 -68.7312,-30.77201 -68.7312,-68.7312v-48.2976c0,-37.95919 30.77201,-68.7312 68.7312,-68.7312h48.2976c37.95919,0 68.7312,30.77201 68.7312,68.7312v48.2976c0,37.95919 -30.77201,68.7312 -68.7312,68.7312z" fill="none"/><path d="M61.8512,178.88c-37.95919,0 -68.7312,-30.77201 -68.7312,-68.7312v-48.2976c0,-37.95919 30.77201,-68.7312 68.7312,-68.7312h48.2976c37.95919,0 68.7312,30.77201 68.7312,68.7312v48.2976c0,37.95919 -30.77201,68.7312 -68.7312,68.7312z" fill="none"/><path d="M65.5664,178.88c-40.01104,0 -72.4464,-32.43536 -72.4464,-72.4464v-40.8672c0,-40.01104 32.43536,-72.4464 72.4464,-72.4464h40.8672c40.01104,0 72.4464,32.43536 72.4464,72.4464v40.8672c0,40.01104 -32.43536,72.4464 -72.4464,72.4464z" fill="none"/><path d="M65.5664,178.88c-40.01104,0 -72.4464,-32.43536 -72.4464,-72.4464v-40.8672c0,-40.01104 32.43536,-72.4464 72.4464,-72.4464h40.8672c40.01104,0 72.4464,32.43536 72.4464,72.4464v40.8672c0,40.01104 -32.43536,72.4464 -72.4464,72.4464z" fill="none"/><path d="M72.068,178.88c-43.60178,0 -78.948,-35.34622 -78.948,-78.948v-27.864c0,-43.60178 35.34622,-78.948 78.948,-78.948h27.864c43.60178,0 78.948,35.34622 78.948,78.948v27.864c0,43.60178 -35.34622,78.948 -78.948,78.948z" fill="none"/><path d="M72.068,178.88c-43.60178,0 -78.948,-35.34622 -78.948,-78.948v-27.864c0,-43.60178 35.34622,-78.948 78.948,-78.948h27.864c43.60178,0 78.948,35.34622 78.948,78.948v27.864c0,43.60178 -35.34622,78.948 -78.948,78.948z" fill="none"/><path d="M82.2848,178.88c-49.24436,0 -89.1648,-39.92044 -89.1648,-89.1648v-7.4304c0,-49.24436 39.92044,-89.1648 89.1648,-89.1648h7.4304c49.24436,0 89.1648,39.92044 89.1648,89.1648v7.4304c0,49.24436 -39.92044,89.1648 -89.1648,89.1648z" fill="none"/><path d="M82.2848,178.88c-49.24436,0 -89.1648,-39.92044 -89.1648,-89.1648v-7.4304c0,-49.24436 39.92044,-89.1648 89.1648,-89.1648h7.4304c49.24436,0 89.1648,39.92044 89.1648,89.1648v7.4304c0,49.24436 -39.92044,89.1648 -89.1648,89.1648z" fill="none"/><path d="M86,178.88c-51.29621,0 -92.88,-41.58379 -92.88,-92.88v0c0,-51.29621 41.58379,-92.88 92.88,-92.88v0c51.29621,0 92.88,41.58379 92.88,92.88v0c0,51.29621 -41.58379,92.88 -92.88,92.88z" fill="none"/><path d="M86,178.88c-51.29621,0 -92.88,-41.58379 -92.88,-92.88v0c0,-51.29621 41.58379,-92.88 92.88,-92.88v0c51.29621,0 92.88,41.58379 92.88,92.88v0c0,51.29621 -41.58379,92.88 -92.88,92.88z" fill="none"/><path d="M82.2848,178.88c-49.24436,0 -89.1648,-39.92044 -89.1648,-89.1648v-7.4304c0,-49.24436 39.92044,-89.1648 89.1648,-89.1648h7.4304c49.24436,0 89.1648,39.92044 89.1648,89.1648v7.4304c0,49.24436 -39.92044,89.1648 -89.1648,89.1648z" fill="none"/><path d="M82.2848,178.88c-49.24436,0 -89.1648,-39.92044 -89.1648,-89.1648v-7.4304c0,-49.24436 39.92044,-89.1648 89.1648,-89.1648h7.4304c49.24436,0 89.1648,39.92044 89.1648,89.1648v7.4304c0,49.24436 -39.92044,89.1648 -89.1648,89.1648z" fill="none"/><path d="M72.068,178.88c-43.60178,0 -78.948,-35.34622 -78.948,-78.948v-27.864c0,-43.60178 35.34622,-78.948 78.948,-78.948h27.864c43.60178,0 78.948,35.34622 78.948,78.948v27.864c0,43.60178 -35.34622,78.948 -78.948,78.948z" fill="none"/><path d="M72.068,178.88c-43.60178,0 -78.948,-35.34622 -78.948,-78.948v-27.864c0,-43.60178 35.34622,-78.948 78.948,-78.948h27.864c43.60178,0 78.948,35.34622 78.948,78.948v27.864c0,43.60178 -35.34622,78.948 -78.948,78.948z" fill="none"/><path d="M64.6376,178.88c-39.49808,0 -71.5176,-32.01952 -71.5176,-71.5176v-42.7248c0,-39.49808 32.01952,-71.5176 71.5176,-71.5176h42.7248c39.49808,0 71.5176,32.01952 71.5176,71.5176v42.7248c0,39.49808 -32.01952,71.5176 -71.5176,71.5176z" fill="none"/><path d="M64.6376,178.88c-39.49808,0 -71.5176,-32.01952 -71.5176,-71.5176v-42.7248c0,-39.49808 32.01952,-71.5176 71.5176,-71.5176h42.7248c39.49808,0 71.5176,32.01952 71.5176,71.5176v42.7248c0,39.49808 -32.01952,71.5176 -71.5176,71.5176z" fill="none"/><path d="M60.9224,178.88c-37.44623,0 -67.8024,-30.35617 -67.8024,-67.8024v-50.1552c0,-37.44623 30.35617,-67.8024 67.8024,-67.8024h50.1552c37.44623,0 67.8024,30.35617 67.8024,67.8024v50.1552c0,37.44623 -30.35617,67.8024 -67.8024,67.8024z" fill="none"/><path d="M60.9224,178.88c-37.44623,0 -67.8024,-30.35617 -67.8024,-67.8024v-50.1552c0,-37.44623 30.35617,-67.8024 67.8024,-67.8024h50.1552c37.44623,0 67.8024,30.35617 67.8024,67.8024v50.1552c0,37.44623 -30.35617,67.8024 -67.8024,67.8024z" fill="none"/><path d="M58.136,178.88c-35.90735,0 -65.016,-29.10865 -65.016,-65.016v-55.728c0,-35.90735 29.10865,-65.016 65.016,-65.016h55.728c35.90735,0 65.016,29.10865 65.016,65.016v55.728c0,35.90735 -29.10865,65.016 -65.016,65.016z" fill="none"/><path d="M58.136,178.88c-35.90735,0 -65.016,-29.10865 -65.016,-65.016v-55.728c0,-35.90735 29.10865,-65.016 65.016,-65.016h55.728c35.90735,0 65.016,29.10865 65.016,65.016v55.728c0,35.90735 -29.10865,65.016 -65.016,65.016z" fill="none"/><path d="M57.2072,178.88c-35.39438,0 -64.0872,-28.69282 -64.0872,-64.0872v-57.5856c0,-35.39438 28.69282,-64.0872 64.0872,-64.0872h57.5856c35.39438,0 64.0872,28.69282 64.0872,64.0872v57.5856c0,35.39438 -28.69282,64.0872 -64.0872,64.0872z" fill="none"/><path d="M57.2072,178.88c-35.39438,0 -64.0872,-28.69282 -64.0872,-64.0872v-57.5856c0,-35.39438 28.69282,-64.0872 64.0872,-64.0872h57.5856c35.39438,0 64.0872,28.69282 64.0872,64.0872v57.5856c0,35.39438 -28.69282,64.0872 -64.0872,64.0872z" fill="none"/><path d="M55.3496,178.88c-34.36846,0 -62.2296,-27.86114 -62.2296,-62.2296v-61.3008c0,-34.36846 27.86114,-62.2296 62.2296,-62.2296h61.3008c34.36846,0 62.2296,27.86114 62.2296,62.2296v61.3008c0,34.36846 -27.86114,62.2296 -62.2296,62.2296z" fill="none"/><path d="M55.3496,178.88c-34.36846,0 -62.2296,-27.86114 -62.2296,-62.2296v-61.3008c0,-34.36846 27.86114,-62.2296 62.2296,-62.2296h61.3008c34.36846,0 62.2296,27.86114 62.2296,62.2296v61.3008c0,34.36846 -27.86114,62.2296 -62.2296,62.2296z" fill="none"/><path d="M52.5632,178.88c-32.82957,0 -59.4432,-26.61363 -59.4432,-59.4432v-66.8736c0,-32.82957 26.61363,-59.4432 59.4432,-59.4432h66.8736c32.82957,0 59.4432,26.61363 59.4432,59.4432v66.8736c0,32.82957 -26.61363,59.4432 -59.4432,59.4432z" fill="none"/><path d="M52.5632,178.88c-32.82957,0 -59.4432,-26.61363 -59.4432,-59.4432v-66.8736c0,-32.82957 26.61363,-59.4432 59.4432,-59.4432h66.8736c32.82957,0 59.4432,26.61363 59.4432,59.4432v66.8736c0,32.82957 -26.61363,59.4432 -59.4432,59.4432z" fill="none"/><path d="M50.7056,178.88c-31.80365,0 -57.5856,-25.78195 -57.5856,-57.5856v-70.5888c0,-31.80365 25.78195,-57.5856 57.5856,-57.5856h70.5888c31.80365,0 57.5856,25.78195 57.5856,57.5856v70.5888c0,31.80365 -25.78195,57.5856 -57.5856,57.5856z" fill="none"/><path d="M50.7056,178.88c-31.80365,0 -57.5856,-25.78195 -57.5856,-57.5856v-70.5888c0,-31.80365 25.78195,-57.5856 57.5856,-57.5856h70.5888c31.80365,0 57.5856,25.78195 57.5856,57.5856v70.5888c0,31.80365 -25.78195,57.5856 -57.5856,57.5856z" fill="none"/><path d="M47.9192,178.88c-30.26476,0 -54.7992,-24.53444 -54.7992,-54.7992v-76.1616c0,-30.26476 24.53444,-54.7992 54.7992,-54.7992h76.1616c30.26476,0 54.7992,24.53444 54.7992,54.7992v76.1616c0,30.26476 -24.53444,54.7992 -54.7992,54.7992z" fill="none"/><path d="M47.9192,178.88c-30.26476,0 -54.7992,-24.53444 -54.7992,-54.7992v-76.1616c0,-30.26476 24.53444,-54.7992 54.7992,-54.7992h76.1616c30.26476,0 54.7992,24.53444 54.7992,54.7992v76.1616c0,30.26476 -24.53444,54.7992 -54.7992,54.7992z" fill="none"/><path d="M46.9904,178.88c-29.7518,0 -53.8704,-24.1186 -53.8704,-53.8704v-78.0192c0,-29.7518 24.1186,-53.8704 53.8704,-53.8704h78.0192c29.7518,0 53.8704,24.1186 53.8704,53.8704v78.0192c0,29.7518 -24.1186,53.8704 -53.8704,53.8704z" fill="none"/><path d="M46.9904,178.88c-29.7518,0 -53.8704,-24.1186 -53.8704,-53.8704v-78.0192c0,-29.7518 24.1186,-53.8704 53.8704,-53.8704h78.0192c29.7518,0 53.8704,24.1186 53.8704,53.8704v78.0192c0,29.7518 -24.1186,53.8704 -53.8704,53.8704z" fill="none"/><path d="M43.2752,178.88c-27.69995,0 -50.1552,-22.45525 -50.1552,-50.1552v-85.4496c0,-27.69995 22.45525,-50.1552 50.1552,-50.1552h85.4496c27.69995,0 50.1552,22.45525 50.1552,50.1552v85.4496c0,27.69995 -22.45525,50.1552 -50.1552,50.1552z" fill="none"/><path d="M43.2752,178.88c-27.69995,0 -50.1552,-22.45525 -50.1552,-50.1552v-85.4496c0,-27.69995 22.45525,-50.1552 50.1552,-50.1552h85.4496c27.69995,0 50.1552,22.45525 50.1552,50.1552v85.4496c0,27.69995 -22.45525,50.1552 -50.1552,50.1552z" fill="none"/><path d="M42.3464,178.88c-27.18699,0 -49.2264,-22.03941 -49.2264,-49.2264v-87.3072c0,-27.18699 22.03941,-49.2264 49.2264,-49.2264h87.3072c27.18699,0 49.2264,22.03941 49.2264,49.2264v87.3072c0,27.18699 -22.03941,49.2264 -49.2264,49.2264z" fill="none"/><path d="M42.3464,178.88c-27.18699,0 -49.2264,-22.03941 -49.2264,-49.2264v-87.3072c0,-27.18699 22.03941,-49.2264 49.2264,-49.2264h87.3072c27.18699,0 49.2264,22.03941 49.2264,49.2264v87.3072c0,27.18699 -22.03941,49.2264 -49.2264,49.2264z" fill="none"/><path d="M39.56,178.88c-25.6481,0 -46.44,-20.7919 -46.44,-46.44v-92.88c0,-25.6481 20.7919,-46.44 46.44,-46.44h92.88c25.6481,0 46.44,20.7919 46.44,46.44v92.88c0,25.6481 -20.7919,46.44 -46.44,46.44z" fill="none"/><path d="M39.56,178.88c-25.6481,0 -46.44,-20.7919 -46.44,-46.44v-92.88c0,-25.6481 20.7919,-46.44 46.44,-46.44h92.88c25.6481,0 46.44,20.7919 46.44,46.44v92.88c0,25.6481 -20.7919,46.44 -46.44,46.44z" fill="none"/><path d="M38.6312,178.88c-25.13514,0 -45.5112,-20.37606 -45.5112,-45.5112v-94.7376c0,-25.13514 20.37606,-45.5112 45.5112,-45.5112h94.7376c25.13514,0 45.5112,20.37606 45.5112,45.5112v94.7376c0,25.13514 -20.37606,45.5112 -45.5112,45.5112z" fill="none"/><path d="M38.6312,178.88c-25.13514,0 -45.5112,-20.37606 -45.5112,-45.5112v-94.7376c0,-25.13514 20.37606,-45.5112 45.5112,-45.5112h94.7376c25.13514,0 45.5112,20.37606 45.5112,45.5112v94.7376c0,25.13514 -20.37606,45.5112 -45.5112,45.5112z" fill="none"/><path d="M37.7024,178.88c-24.62218,0 -44.5824,-19.96022 -44.5824,-44.5824v-96.5952c0,-24.62218 19.96022,-44.5824 44.5824,-44.5824h96.5952c24.62218,0 44.5824,19.96022 44.5824,44.5824v96.5952c0,24.62218 -19.96022,44.5824 -44.5824,44.5824z" fill="none"/><path d="M37.7024,178.88c-24.62218,0 -44.5824,-19.96022 -44.5824,-44.5824v-96.5952c0,-24.62218 19.96022,-44.5824 44.5824,-44.5824h96.5952c24.62218,0 44.5824,19.96022 44.5824,44.5824v96.5952c0,24.62218 -19.96022,44.5824 -44.5824,44.5824z" fill="none"/><path d="M36.7736,178.88c-24.10922,0 -43.6536,-19.54438 -43.6536,-43.6536v-98.4528c0,-24.10922 19.54438,-43.6536 43.6536,-43.6536h98.4528c24.10922,0 43.6536,19.54438 43.6536,43.6536v98.4528c0,24.10922 -19.54438,43.6536 -43.6536,43.6536z" fill="none"/><path d="M36.7736,178.88c-24.10922,0 -43.6536,-19.54438 -43.6536,-43.6536v-98.4528c0,-24.10922 19.54438,-43.6536 43.6536,-43.6536h98.4528c24.10922,0 43.6536,19.54438 43.6536,43.6536v98.4528c0,24.10922 -19.54438,43.6536 -43.6536,43.6536z" fill="none"/><path d="M35.8448,178.88c-23.59626,0 -42.7248,-19.12854 -42.7248,-42.7248v-100.3104c0,-23.59626 19.12854,-42.7248 42.7248,-42.7248h100.3104c23.59626,0 42.7248,19.12854 42.7248,42.7248v100.3104c0,23.59626 -19.12854,42.7248 -42.7248,42.7248z" fill="none"/><path d="M35.8448,178.88c-23.59626,0 -42.7248,-19.12854 -42.7248,-42.7248v-100.3104c0,-23.59626 19.12854,-42.7248 42.7248,-42.7248h100.3104c23.59626,0 42.7248,19.12854 42.7248,42.7248v100.3104c0,23.59626 -19.12854,42.7248 -42.7248,42.7248z" fill="none"/><path d="M33.9872,178.88c-22.57033,0 -40.8672,-18.29687 -40.8672,-40.8672v-104.0256c0,-22.57033 18.29687,-40.8672 40.8672,-40.8672h104.0256c22.57033,0 40.8672,18.29687 40.8672,40.8672v104.0256c0,22.57033 -18.29687,40.8672 -40.8672,40.8672z" fill="none"/><path d="M33.9872,178.88c-22.57033,0 -40.8672,-18.29687 -40.8672,-40.8672v-104.0256c0,-22.57033 18.29687,-40.8672 40.8672,-40.8672h104.0256c22.57033,0 40.8672,18.29687 40.8672,40.8672v104.0256c0,22.57033 -18.29687,40.8672 -40.8672,40.8672z" fill="none"/><path d="M33.0584,178.88c-22.05737,0 -39.9384,-17.88103 -39.9384,-39.9384v-105.8832c0,-22.05737 17.88103,-39.9384 39.9384,-39.9384h105.8832c22.05737,0 39.9384,17.88103 39.9384,39.9384v105.8832c0,22.05737 -17.88103,39.9384 -39.9384,39.9384z" fill="none"/><path d="M33.0584,178.88c-22.05737,0 -39.9384,-17.88103 -39.9384,-39.9384v-105.8832c0,-22.05737 17.88103,-39.9384 39.9384,-39.9384h105.8832c22.05737,0 39.9384,17.88103 39.9384,39.9384v105.8832c0,22.05737 -17.88103,39.9384 -39.9384,39.9384z" fill="none"/><path d="M32.1296,178.88c-21.54441,0 -39.0096,-17.46519 -39.0096,-39.0096v-107.7408c0,-21.54441 17.46519,-39.0096 39.0096,-39.0096h107.7408c21.54441,0 39.0096,17.46519 39.0096,39.0096v107.7408c0,21.54441 -17.46519,39.0096 -39.0096,39.0096z" fill="none"/><path d="M32.1296,178.88c-21.54441,0 -39.0096,-17.46519 -39.0096,-39.0096v-107.7408c0,-21.54441 17.46519,-39.0096 39.0096,-39.0096h107.7408c21.54441,0 39.0096,17.46519 39.0096,39.0096v107.7408c0,21.54441 -17.46519,39.0096 -39.0096,39.0096z" fill="none"/><path d="M28.4144,178.88c-19.49256,0 -35.2944,-15.80184 -35.2944,-35.2944v-115.1712c0,-19.49256 15.80184,-35.2944 35.2944,-35.2944h115.1712c19.49256,0 35.2944,15.80184 35.2944,35.2944v115.1712c0,19.49256 -15.80184,35.2944 -35.2944,35.2944z" fill="none"/><path d="M28.4144,178.88c-19.49256,0 -35.2944,-15.80184 -35.2944,-35.2944v-115.1712c0,-19.49256 15.80184,-35.2944 35.2944,-35.2944h115.1712c19.49256,0 35.2944,15.80184 35.2944,35.2944v115.1712c0,19.49256 -15.80184,35.2944 -35.2944,35.2944z" fill="none"/><path d="M27.4856,178.88c-18.9796,0 -34.3656,-15.386 -34.3656,-34.3656v-117.0288c0,-18.9796 15.386,-34.3656 34.3656,-34.3656h117.0288c18.9796,0 34.3656,15.386 34.3656,34.3656v117.0288c0,18.9796 -15.386,34.3656 -34.3656,34.3656z" fill="none"/><path d="M27.4856,178.88c-18.9796,0 -34.3656,-15.386 -34.3656,-34.3656v-117.0288c0,-18.9796 15.386,-34.3656 34.3656,-34.3656h117.0288c18.9796,0 34.3656,15.386 34.3656,34.3656v117.0288c0,18.9796 -15.386,34.3656 -34.3656,34.3656z" fill="none"/><path d="M26.5568,178.88c-18.46663,0 -33.4368,-14.97017 -33.4368,-33.4368v-118.8864c0,-18.46663 14.97017,-33.4368 33.4368,-33.4368h118.8864c18.46663,0 33.4368,14.97017 33.4368,33.4368v118.8864c0,18.46663 -14.97017,33.4368 -33.4368,33.4368z" fill="none"/><path d="M26.5568,178.88c-18.46663,0 -33.4368,-14.97017 -33.4368,-33.4368v-118.8864c0,-18.46663 14.97017,-33.4368 33.4368,-33.4368h118.8864c18.46663,0 33.4368,14.97017 33.4368,33.4368v118.8864c0,18.46663 -14.97017,33.4368 -33.4368,33.4368z" fill="none"/><path d="M25.628,178.88c-17.95367,0 -32.508,-14.55433 -32.508,-32.508v-120.744c0,-17.95367 14.55433,-32.508 32.508,-32.508h120.744c17.95367,0 32.508,14.55433 32.508,32.508v120.744c0,17.95367 -14.55433,32.508 -32.508,32.508z" fill="none"/><path d="M25.628,178.88c-17.95367,0 -32.508,-14.55433 -32.508,-32.508v-120.744c0,-17.95367 14.55433,-32.508 32.508,-32.508h120.744c17.95367,0 32.508,14.55433 32.508,32.508v120.744c0,17.95367 -14.55433,32.508 -32.508,32.508z" fill="none"/><path d="M24.6992,178.88c-17.44071,0 -31.5792,-14.13849 -31.5792,-31.5792v-122.6016c0,-17.44071 14.13849,-31.5792 31.5792,-31.5792h122.6016c17.44071,0 31.5792,14.13849 31.5792,31.5792v122.6016c0,17.44071 -14.13849,31.5792 -31.5792,31.5792z" fill="none"/><path d="M24.6992,178.88c-17.44071,0 -31.5792,-14.13849 -31.5792,-31.5792v-122.6016c0,-17.44071 14.13849,-31.5792 31.5792,-31.5792h122.6016c17.44071,0 31.5792,14.13849 31.5792,31.5792v122.6016c0,17.44071 -14.13849,31.5792 -31.5792,31.5792z" fill="none"/><path d="M23.7704,178.88c-16.92775,0 -30.6504,-13.72265 -30.6504,-30.6504v-124.4592c0,-16.92775 13.72265,-30.6504 30.6504,-30.6504h124.4592c16.92775,0 30.6504,13.72265 30.6504,30.6504v124.4592c0,16.92775 -13.72265,30.6504 -30.6504,30.6504z" fill="none"/><path d="M23.7704,178.88c-16.92775,0 -30.6504,-13.72265 -30.6504,-30.6504v-124.4592c0,-16.92775 13.72265,-30.6504 30.6504,-30.6504h124.4592c16.92775,0 30.6504,13.72265 30.6504,30.6504v124.4592c0,16.92775 -13.72265,30.6504 -30.6504,30.6504z" fill="none"/><path d="M20.984,178.88c-15.38886,0 -27.864,-12.47514 -27.864,-27.864v-130.032c0,-15.38886 12.47514,-27.864 27.864,-27.864h130.032c15.38886,0 27.864,12.47514 27.864,27.864v130.032c0,15.38886 -12.47514,27.864 -27.864,27.864z" fill="none"/><path d="M20.984,178.88c-15.38886,0 -27.864,-12.47514 -27.864,-27.864v-130.032c0,-15.38886 12.47514,-27.864 27.864,-27.864h130.032c15.38886,0 27.864,12.47514 27.864,27.864v130.032c0,15.38886 -12.47514,27.864 -27.864,27.864z" fill="none"/><path d="M20.0552,178.88c-14.8759,0 -26.9352,-12.0593 -26.9352,-26.9352v-131.8896c0,-14.8759 12.0593,-26.9352 26.9352,-26.9352h131.8896c14.8759,0 26.9352,12.0593 26.9352,26.9352v131.8896c0,14.8759 -12.0593,26.9352 -26.9352,26.9352z" fill="none"/><path d="M20.0552,178.88c-14.8759,0 -26.9352,-12.0593 -26.9352,-26.9352v-131.8896c0,-14.8759 12.0593,-26.9352 26.9352,-26.9352h131.8896c14.8759,0 26.9352,12.0593 26.9352,26.9352v131.8896c0,14.8759 -12.0593,26.9352 -26.9352,26.9352z" fill="none"/><path d="M18.1976,178.88c-13.84998,0 -25.0776,-11.22762 -25.0776,-25.0776v-135.6048c0,-13.84998 11.22762,-25.0776 25.0776,-25.0776h135.6048c13.84998,0 25.0776,11.22762 25.0776,25.0776v135.6048c0,13.84998 -11.22762,25.0776 -25.0776,25.0776z" fill="none"/><path d="M18.1976,178.88c-13.84998,0 -25.0776,-11.22762 -25.0776,-25.0776v-135.6048c0,-13.84998 11.22762,-25.0776 25.0776,-25.0776h135.6048c13.84998,0 25.0776,11.22762 25.0776,25.0776v135.6048c0,13.84998 -11.22762,25.0776 -25.0776,25.0776z" fill="none"/><path d="M17.2688,178.88c-13.33701,0 -24.1488,-10.81179 -24.1488,-24.1488v-137.4624c0,-13.33701 10.81179,-24.1488 24.1488,-24.1488h137.4624c13.33701,0 24.1488,10.81179 24.1488,24.1488v137.4624c0,13.33701 -10.81179,24.1488 -24.1488,24.1488z" fill="none"/><path d="M17.2688,178.88c-13.33701,0 -24.1488,-10.81179 -24.1488,-24.1488v-137.4624c0,-13.33701 10.81179,-24.1488 24.1488,-24.1488h137.4624c13.33701,0 24.1488,10.81179 24.1488,24.1488v137.4624c0,13.33701 -10.81179,24.1488 -24.1488,24.1488z" fill="none"/><path d="M14.4824,178.88c-11.79813,0 -21.3624,-9.56427 -21.3624,-21.3624v-143.0352c0,-11.79813 9.56427,-21.3624 21.3624,-21.3624h143.0352c11.79813,0 21.3624,9.56427 21.3624,21.3624v143.0352c0,11.79813 -9.56427,21.3624 -21.3624,21.3624z" fill="none"/><path d="M14.4824,178.88c-11.79813,0 -21.3624,-9.56427 -21.3624,-21.3624v-143.0352c0,-11.79813 9.56427,-21.3624 21.3624,-21.3624h143.0352c11.79813,0 21.3624,9.56427 21.3624,21.3624v143.0352c0,11.79813 -9.56427,21.3624 -21.3624,21.3624z" fill="none"/><path d="M15.4112,178.88c-12.31109,0 -22.2912,-9.98011 -22.2912,-22.2912v-141.1776c0,-12.31109 9.98011,-22.2912 22.2912,-22.2912h141.1776c12.31109,0 22.2912,9.98011 22.2912,22.2912v141.1776c0,12.31109 -9.98011,22.2912 -22.2912,22.2912z" fill="none"/><path d="M15.4112,178.88c-12.31109,0 -22.2912,-9.98011 -22.2912,-22.2912v-141.1776c0,-12.31109 9.98011,-22.2912 22.2912,-22.2912h141.1776c12.31109,0 22.2912,9.98011 22.2912,22.2912v141.1776c0,12.31109 -9.98011,22.2912 -22.2912,22.2912z" fill="none"/><path d="M16.34,178.88c-12.82405,0 -23.22,-10.39595 -23.22,-23.22v-139.32c0,-12.82405 10.39595,-23.22 23.22,-23.22h139.32c12.82405,0 23.22,10.39595 23.22,23.22v139.32c0,12.82405 -10.39595,23.22 -23.22,23.22z" fill="none"/><path d="M16.34,178.88c-12.82405,0 -23.22,-10.39595 -23.22,-23.22v-139.32c0,-12.82405 10.39595,-23.22 23.22,-23.22h139.32c12.82405,0 23.22,10.39595 23.22,23.22v139.32c0,12.82405 -10.39595,23.22 -23.22,23.22z" fill="none"/><path d="M21.5,172c-11.87412,0 -21.5,-9.62588 -21.5,-21.5v-129c0,-11.87412 9.62588,-21.5 21.5,-21.5h129c11.87412,0 21.5,9.62588 21.5,21.5v129c0,11.87412 -9.62588,21.5 -21.5,21.5z" fill="none"/><path d="M21.5,172c-11.87412,0 -21.5,-9.62588 -21.5,-21.5v-129c0,-11.87412 9.62588,-21.5 21.5,-21.5h129c11.87412,0 21.5,9.62588 21.5,21.5v129c0,11.87412 -9.62588,21.5 -21.5,21.5z" fill="none"/><path d="M24.725,167.7c-11.28042,0 -20.425,-9.14458 -20.425,-20.425v-122.55c0,-11.28042 9.14458,-20.425 20.425,-20.425h122.55c11.28042,0 20.425,9.14458 20.425,20.425v122.55c0,11.28042 -9.14458,20.425 -20.425,20.425z" fill="none"/><path d="M24.725,167.7c-11.28042,0 -20.425,-9.14458 -20.425,-20.425v-122.55c0,-11.28042 9.14458,-20.425 20.425,-20.425h122.55c11.28042,0 20.425,9.14458 20.425,20.425v122.55c0,11.28042 -9.14458,20.425 -20.425,20.425z" fill="none"/><path d="M25.37,166.84c-11.16167,0 -20.21,-9.04833 -20.21,-20.21v-121.26c0,-11.16167 9.04833,-20.21 20.21,-20.21h121.26c11.16167,0 20.21,9.04833 20.21,20.21v121.26c0,11.16167 -9.04833,20.21 -20.21,20.21z" fill="none"/><path d="M25.37,166.84c-11.16167,0 -20.21,-9.04833 -20.21,-20.21v-121.26c0,-11.16167 9.04833,-20.21 20.21,-20.21h121.26c11.16167,0 20.21,9.04833 20.21,20.21v121.26c0,11.16167 -9.04833,20.21 -20.21,20.21z" fill="none"/><path d="M33.755,155.66c-9.61804,0 -17.415,-7.79696 -17.415,-17.415v-104.49c0,-9.61804 7.79696,-17.415 17.415,-17.415h104.49c9.61804,0 17.415,7.79696 17.415,17.415v104.49c0,9.61804 -7.79696,17.415 -17.415,17.415z" fill="none"/><path d="M33.755,155.66c-9.61804,0 -17.415,-7.79696 -17.415,-17.415v-104.49c0,-9.61804 7.79696,-17.415 17.415,-17.415h104.49c9.61804,0 17.415,7.79696 17.415,17.415v104.49c0,9.61804 -7.79696,17.415 -17.415,17.415z" fill="none"/><path d="M37.625,150.5c-8.90559,0 -16.125,-7.21941 -16.125,-16.125v-96.75c0,-8.90559 7.21941,-16.125 16.125,-16.125h96.75c8.90559,0 16.125,7.21941 16.125,16.125v96.75c0,8.90559 -7.21941,16.125 -16.125,16.125z" fill="none"/><path d="M37.625,150.5c-8.90559,0 -16.125,-7.21941 -16.125,-16.125v-96.75c0,-8.90559 7.21941,-16.125 16.125,-16.125h96.75c8.90559,0 16.125,7.21941 16.125,16.125v96.75c0,8.90559 -7.21941,16.125 -16.125,16.125z" fill="none"/><path d="M44.075,141.9c-7.71818,0 -13.975,-6.25682 -13.975,-13.975v-83.85c0,-7.71818 6.25682,-13.975 13.975,-13.975h83.85c7.71818,0 13.975,6.25682 13.975,13.975v83.85c0,7.71818 -6.25682,13.975 -13.975,13.975z" fill="none"/><path d="M44.075,141.9c-7.71818,0 -13.975,-6.25682 -13.975,-13.975v-83.85c0,-7.71818 6.25682,-13.975 13.975,-13.975h83.85c7.71818,0 13.975,6.25682 13.975,13.975v83.85c0,7.71818 -6.25682,13.975 -13.975,13.975z" fill="none"/><path d="M58.91,122.12c-4.98713,0 -9.03,-4.04287 -9.03,-9.03v-54.18c0,-4.98713 4.04287,-9.03 9.03,-9.03h54.18c4.98713,0 9.03,4.04287 9.03,9.03v54.18c0,4.98713 -4.04287,9.03 -9.03,9.03z" fill="none"/><path d="M58.91,122.12c-4.98713,0 -9.03,-4.04287 -9.03,-9.03v-54.18c0,-4.98713 4.04287,-9.03 9.03,-9.03h54.18c4.98713,0 9.03,4.04287 9.03,9.03v54.18c0,4.98713 -4.04287,9.03 -9.03,9.03z" fill="none"/><path d="M74.39,101.48c-2.13734,0 -3.87,-1.73266 -3.87,-3.87v-23.22c0,-2.13734 1.73266,-3.87 3.87,-3.87h23.22c2.13734,0 3.87,1.73266 3.87,3.87v23.22c0,2.13734 -1.73266,3.87 -3.87,3.87z" fill="none"/><path d="M74.39,101.48c-2.13734,0 -3.87,-1.73266 -3.87,-3.87v-23.22c0,-2.13734 1.73266,-3.87 3.87,-3.87h23.22c2.13734,0 3.87,1.73266 3.87,3.87v23.22c0,2.13734 -1.73266,3.87 -3.87,3.87z" fill="none"/><path d="M85.355,86.86c-0.11874,0 -0.215,-0.09626 -0.215,-0.215v-1.29c0,-0.11874 0.09626,-0.215 0.215,-0.215h1.29c0.11874,0 0.215,0.09626 0.215,0.215v1.29c0,0.11874 -0.09626,0.215 -0.215,0.215z" fill="none"/><path d="M85.355,86.86c-0.11874,0 -0.215,-0.09626 -0.215,-0.215v-1.29c0,-0.11874 0.09626,-0.215 0.215,-0.215h1.29c0.11874,0 0.215,0.09626 0.215,0.215v1.29c0,0.11874 -0.09626,0.215 -0.215,0.215z" fill="none"/><path d="M84.71,87.72c-0.23748,0 -0.43,-0.19252 -0.43,-0.43v-2.58c0,-0.23748 0.19252,-0.43 0.43,-0.43h2.58c0.23748,0 0.43,0.19252 0.43,0.43v2.58c0,0.23748 -0.19252,0.43 -0.43,0.43z" fill="none"/><path d="M84.71,87.72c-0.23748,0 -0.43,-0.19252 -0.43,-0.43v-2.58c0,-0.23748 0.19252,-0.43 0.43,-0.43h2.58c0.23748,0 0.43,0.19252 0.43,0.43v2.58c0,0.23748 -0.19252,0.43 -0.43,0.43z" fill="none"/><path d="M21.5,172c-11.87412,0 -21.5,-9.62588 -21.5,-21.5v-129c0,-11.87412 9.62588,-21.5 21.5,-21.5h129c11.87412,0 21.5,9.62588 21.5,21.5v129c0,11.87412 -9.62588,21.5 -21.5,21.5z" fill="none"/><path d="M21.5,172c-11.87412,0 -21.5,-9.62588 -21.5,-21.5v-129c0,-11.87412 9.62588,-21.5 21.5,-21.5h129c11.87412,0 21.5,9.62588 21.5,21.5v129c0,11.87412 -9.62588,21.5 -21.5,21.5z" fill="none"/></g></g></svg>
